<?xml version="1.0" encoding="utf-8"?>
<svg xmlns="http://www.w3.org/2000/svg" style="margin: auto; background: none; display: block; shape-rendering: auto;" width="289" height="46" preserveAspectRatio="xMidYMid">
<style type="text/css">
  text {
    text-anchor: middle; font-size: 23px; opacity: 0;
  }
</style>
<g style="transform-origin: 144.5px 23px; transform: scale(1.09524);">
<g transform="translate(144.5,23)">
  <g transform="translate(0,0)"><g class="path" style="transform: matrix(1, 0, 0, 1, 0, 14.925); opacity: 0.05; transform-origin: -119.52px -1.44276px; animation: 2.22222s linear 0s 1 normal forwards running float-btt-in-58f3df71-92f7-434f-9d13-5b99713df472;"><path d="M0.44-14.30L0.44-14.70L6.99-14.70L6.99-14.30L5.78-14.30L5.78-7.79L9.95-7.79L9.95-14.30L8.71-14.30L8.71-14.70L15.29-14.70L15.29-14.30L14.05-14.30L14.05-0.40L15.29-0.40L15.29 0L8.71 0L8.71-0.40L9.95-0.40L9.95-7.25L5.78-7.25L5.78-0.40L6.99-0.40L6.99 0L0.44 0L0.44-0.40L1.68-0.40L1.68-14.30L0.44-14.30" fill="#fcb711" stroke="none" stroke-width="none" transform="translate(-127.38497924804688,5.907239356407742)" style="fill: rgb(252, 183, 17);"></path></g><g class="path" style="transform: matrix(1, 0, 0, 1, 0, 14.925); opacity: 0.05; transform-origin: -106.351px 0.907239px; animation: 2.22222s linear 0.0564103s 1 normal forwards running float-btt-in-58f3df71-92f7-434f-9d13-5b99713df472;"><path d="M21.46 0.21L21.46 0.21Q18.75 0.21 17.40-1.19L17.40-1.19L17.40-1.19Q16.04-2.58 16.04-5.07L16.04-5.07L16.04-5.07Q16.04-7.56 17.57-8.88L17.57-8.88L17.57-8.88Q19.09-10.21 21.44-10.21L21.44-10.21L21.44-10.21Q26.21-10.21 26.02-5.42L26.02-5.42L20.10-5.42L20.10-4.60L20.10-4.60Q20.10-2.54 20.62-1.49L20.62-1.49L20.62-1.49Q21.15-0.44 22.45-0.44L22.45-0.44L22.45-0.44Q24.89-0.44 25.64-3.05L25.64-3.05L26.02-2.98L26.02-2.98Q25.62-1.47 24.58-0.63L24.58-0.63L24.58-0.63Q23.54 0.21 21.46 0.21L21.46 0.21zM20.12-6.87L20.12-5.84L22.28-5.84L22.28-6.87L22.28-6.87Q22.28-8.57 22.08-9.19L22.08-9.19L22.08-9.19Q21.88-9.81 21.28-9.81L21.28-9.81L21.28-9.81Q20.69-9.81 20.40-9.15L20.40-9.15L20.40-9.15Q20.12-8.48 20.12-6.87L20.12-6.87" fill="#fcb711" stroke="none" stroke-width="none" transform="translate(-127.38497924804688,5.907239356407742)" style="fill: rgb(243, 112, 33);"></path></g><g class="path" style="transform: matrix(1, 0, 0, 1, 0, 14.925); opacity: 0.05; transform-origin: -97.535px -1.96776px; animation: 2.22222s linear 0.112821s 1 normal forwards running float-btt-in-58f3df71-92f7-434f-9d13-5b99713df472;"><path d="M26.69-15.37L26.69-15.75L31.84-15.75L31.84-0.38L33.01-0.38L33.01 0L26.78 0L26.78-0.38L27.93-0.38L27.93-15.37L26.69-15.37" fill="#fcb711" stroke="none" stroke-width="none" transform="translate(-127.38497924804688,5.907239356407742)" style="fill: rgb(204, 0, 76);"></path></g><g class="path" style="transform: matrix(1, 0, 0, 1, 0, 14.925); opacity: 0.05; transform-origin: -90.895px -1.96776px; animation: 2.22222s linear 0.169231s 1 normal forwards running float-btt-in-58f3df71-92f7-434f-9d13-5b99713df472;"><path d="M33.33-15.37L33.33-15.75L38.47-15.75L38.47-0.38L39.65-0.38L39.65 0L33.41 0L33.41-0.38L34.57-0.38L34.57-15.37L33.33-15.37" fill="#fcb711" stroke="none" stroke-width="none" transform="translate(-127.38497924804688,5.907239356407742)" style="fill: rgb(100, 96, 170);"></path></g><g class="path" style="transform: matrix(1, 0, 0, 1, 0, 14.925); opacity: 0.05; transform-origin: -81.845px 0.907239px; animation: 2.22222s linear 0.225641s 1 normal forwards running float-btt-in-58f3df71-92f7-434f-9d13-5b99713df472;"><path d="M46.83-4.14L46.83-4.14L46.83-5.92L46.83-5.92Q46.83-7.96 46.61-8.89L46.61-8.89L46.61-8.89Q46.39-9.83 45.59-9.83L45.59-9.83L45.59-9.83Q45.13-9.83 44.85-9.57L44.85-9.57L44.85-9.57Q44.56-9.30 44.44-8.69L44.44-8.69L44.44-8.69Q44.25-7.75 44.25-5.82L44.25-5.82L44.25-4.18L44.25-4.18Q44.25-1.89 44.38-1.43L44.38-1.43L44.38-1.43Q44.52-0.97 44.67-0.67L44.67-0.67L44.67-0.67Q44.90-0.17 45.57-0.17L45.57-0.17L45.57-0.17Q46.39-0.17 46.64-1.11L46.64-1.11L46.64-1.11Q46.83-1.79 46.83-4.14zM45.53 0.21L45.53 0.21Q42.90 0.21 41.56-1.13L41.56-1.13L41.56-1.13Q40.22-2.48 40.22-4.99L40.22-4.99L40.22-4.99Q40.22-7.50 41.65-8.85L41.65-8.85L41.65-8.85Q43.09-10.21 45.70-10.21L45.70-10.21L45.70-10.21Q48.30-10.21 49.58-8.96L49.58-8.96L49.58-8.96Q50.86-7.71 50.86-5.15L50.86-5.15L50.86-5.15Q50.86 0.21 45.53 0.21L45.53 0.21" fill="#fcb711" stroke="none" stroke-width="none" transform="translate(-127.38497924804688,5.907239356407742)" style="fill: rgb(0, 137, 208);"></path></g><g class="path" style="transform: matrix(1, 0, 0, 1, 0, 14.925); opacity: 0.05; transform-origin: -63.745px 0.907239px; animation: 2.22222s linear 0.282051s 1 normal forwards running float-btt-in-58f3df71-92f7-434f-9d13-5b99713df472;"><path d="M63.19-9.62L62.41-9.62L62.41-10.00L67.83-10.00L67.83-9.62L66.97-9.62L68.86-2.54L70.73-9.62L69.28-9.62L69.28-10.00L72.11-10.00L72.11-9.62L71.23-9.62L68.71 0L65.84 0L64.01-6.45L62.03 0L59.22 0L56.11-9.62L55.17-9.62L55.17-10.00L61.53-10.00L61.53-9.62L60.27-9.62L62.20-2.48L63.71-7.39L63.19-9.62" fill="#fcb711" stroke="none" stroke-width="none" transform="translate(-127.38497924804688,5.907239356407742)" style="fill: rgb(13, 177, 75);"></path></g><g class="path" style="transform: matrix(1, 0, 0, 1, 0, 14.925); opacity: 0.05; transform-origin: -49.885px 0.907239px; animation: 2.22222s linear 0.338462s 1 normal forwards running float-btt-in-58f3df71-92f7-434f-9d13-5b99713df472;"><path d="M78.79-4.14L78.79-4.14L78.79-5.92L78.79-5.92Q78.79-7.96 78.57-8.89L78.57-8.89L78.57-8.89Q78.35-9.83 77.55-9.83L77.55-9.83L77.55-9.83Q77.09-9.83 76.81-9.57L76.81-9.57L76.81-9.57Q76.52-9.30 76.40-8.69L76.40-8.69L76.40-8.69Q76.21-7.75 76.21-5.82L76.21-5.82L76.21-4.18L76.21-4.18Q76.21-1.89 76.35-1.43L76.35-1.43L76.35-1.43Q76.48-0.97 76.63-0.67L76.63-0.67L76.63-0.67Q76.86-0.17 77.53-0.17L77.53-0.17L77.53-0.17Q78.35-0.17 78.60-1.11L78.60-1.11L78.60-1.11Q78.79-1.79 78.79-4.14zM77.49 0.21L77.49 0.21Q74.87 0.21 73.52-1.13L73.52-1.13L73.52-1.13Q72.18-2.48 72.18-4.99L72.18-4.99L72.18-4.99Q72.18-7.50 73.62-8.85L73.62-8.85L73.62-8.85Q75.05-10.21 77.66-10.21L77.66-10.21L77.66-10.21Q80.26-10.21 81.54-8.96L81.54-8.96L81.54-8.96Q82.82-7.71 82.82-5.15L82.82-5.15L82.82-5.15Q82.82 0.21 77.49 0.21L77.49 0.21" fill="#fcb711" stroke="none" stroke-width="none" transform="translate(-127.38497924804688,5.907239356407742)" style="fill: rgb(252, 183, 17);"></path></g><g class="path" style="transform: matrix(1, 0, 0, 1, 0, 14.925); opacity: 0.05; transform-origin: -38.925px 0.802239px; animation: 2.22222s linear 0.394872s 1 normal forwards running float-btt-in-58f3df71-92f7-434f-9d13-5b99713df472;"><path d="M90.43-9.41L90.43-9.41L90.43-9.41Q89.65-9.41 89.06-8.40L89.06-8.40L89.06-8.40Q88.47-7.39 88.47-6.01L88.47-6.01L88.47-0.38L89.96-0.38L89.96 0L83.41 0L83.41-0.38L84.57-0.38L84.57-9.62L83.41-9.62L83.41-10.00L88.47-10.00L88.47-7.98L88.47-7.98Q88.75-9.05 89.52-9.63L89.52-9.63L89.52-9.63Q90.30-10.21 91.29-10.21L91.29-10.21L91.29-10.21Q92.27-10.21 92.89-9.65L92.89-9.65L92.89-9.65Q93.51-9.09 93.51-8.07L93.51-8.07L93.51-8.07Q93.51-7.06 93.05-6.51L93.05-6.51L93.05-6.51Q92.59-5.96 91.63-5.96L91.63-5.96L91.63-5.96Q90.68-5.96 90.23-6.59L90.23-6.59L90.23-6.59Q89.78-7.22 90.11-8.34L90.11-8.34L90.87-8.34L90.87-8.34Q91.39-9.41 90.43-9.41" fill="#fcb711" stroke="none" stroke-width="none" transform="translate(-127.38497924804688,5.907239356407742)" style="fill: rgb(243, 112, 33);"></path></g><g class="path" style="transform: matrix(1, 0, 0, 1, 0, 14.925); opacity: 0.05; transform-origin: -30.715px -1.96776px; animation: 2.22222s linear 0.451282s 1 normal forwards running float-btt-in-58f3df71-92f7-434f-9d13-5b99713df472;"><path d="M93.51-15.37L93.51-15.75L98.66-15.75L98.66-0.38L99.83-0.38L99.83 0L93.60 0L93.60-0.38L94.75-0.38L94.75-15.37L93.51-15.37" fill="#fcb711" stroke="none" stroke-width="none" transform="translate(-127.38497924804688,5.907239356407742)" style="fill: rgb(204, 0, 76);"></path></g><g class="path" style="transform: matrix(1, 0, 0, 1, 0, 14.925); opacity: 0.05; transform-origin: -21.145px -1.86276px; animation: 2.22222s linear 0.507692s 1 normal forwards running float-btt-in-58f3df71-92f7-434f-9d13-5b99713df472;"><path d="M104.50-4.35L104.50-4.35Q104.50-2.14 104.73-1.42L104.73-1.42L104.73-1.42Q104.96-0.69 105.58-0.69L105.58-0.69L105.58-0.69Q106.20-0.69 106.65-1.24L106.65-1.24L106.65-1.24Q107.10-1.79 107.10-2.86L107.10-2.86L107.10-7.43L107.10-7.43Q107.10-8.34 106.74-8.97L106.74-8.97L106.74-8.97Q106.39-9.60 105.69-9.60L105.69-9.60L105.69-9.60Q105.00-9.60 104.75-8.67L104.75-8.67L104.75-8.67Q104.50-7.75 104.50-5.44L104.50-5.44L104.50-4.35zM112.04 0L107.37 0L107.14-1.47L107.14-1.47Q106.43 0.21 104.24 0.21L104.24 0.21L104.24 0.21Q102.44 0.21 101.44-1.09L101.44-1.09L101.44-1.09Q100.44-2.39 100.44-4.98L100.44-4.98L100.44-4.98Q100.44-10.21 104.60-10.21L104.60-10.21L104.60-10.21Q106.45-10.21 107.04-9.18L107.04-9.18L107.04-15.37L105.76-15.37L105.76-15.75L111.01-15.75L111.01-0.38L112.04-0.38L112.04 0" fill="#fcb711" stroke="none" stroke-width="none" transform="translate(-127.38497924804688,5.907239356407742)" style="fill: rgb(100, 96, 170);"></path></g><g class="path" style="transform: matrix(1, 0, 0, 1, 0, 14.925); opacity: 0.05; transform-origin: -12.365px 5.83724px; animation: 2.22222s linear 0.564103s 1 normal forwards running float-btt-in-58f3df71-92f7-434f-9d13-5b99713df472;"><path d="M114.18 3.28L114.18 3.28L113.93 2.96L113.93 2.96Q115.23 1.85 115.63 1.23L115.63 1.23L115.63 1.23Q116.03 0.61 116.03-0.14L116.03-0.14L116.03-0.14Q116.03-0.88 115.37-0.97L115.37-0.97L114.37-0.06L114.37-0.06Q113.88-0.23 113.49-0.66L113.49-0.66L113.49-0.66Q113.11-1.09 113.11-1.77L113.11-1.77L113.11-1.77Q113.11-2.46 113.60-2.94L113.60-2.94L113.60-2.94Q114.09-3.42 114.96-3.42L114.96-3.42L114.96-3.42Q115.84-3.42 116.38-2.75L116.38-2.75L116.38-2.75Q116.93-2.08 116.93-0.97L116.93-0.97L116.93-0.97Q116.93 0.15 116.28 1.18L116.28 1.18L116.28 1.18Q115.63 2.21 114.18 3.28" fill="#fcb711" stroke="none" stroke-width="none" transform="translate(-127.38497924804688,5.907239356407742)" style="fill: rgb(0, 137, 208);"></path></g><g class="path" style="transform: matrix(1, 0, 0, 1, 0, 14.925); opacity: 0.05; transform-origin: -2.00498px -1.44276px; animation: 2.22222s linear 0.620513s 1 normal forwards running float-btt-in-58f3df71-92f7-434f-9d13-5b99713df472;"><path d="M122.18-14.30L122.18-14.70L128.58-14.70L128.58-14.30L127.43-14.30L127.43-0.40L128.58-0.40L128.58 0L122.18 0L122.18-0.40L123.33-0.40L123.33-14.30L122.18-14.30" fill="#fcb711" stroke="none" stroke-width="none" transform="translate(-127.38497924804688,5.907239356407742)" style="fill: rgb(13, 177, 75);"></path></g><g class="path" style="transform: matrix(1, 0, 0, 1, 0, 14.925); opacity: 0.05; transform-origin: 3.81503px -7.19776px; animation: 2.22222s linear 0.676923s 1 normal forwards running float-btt-in-58f3df71-92f7-434f-9d13-5b99713df472;"><path d="M131.21-10.10L130.77-10.10L130.16-15.69L130.16-15.69Q131.00-16.11 131.52-16.11L131.52-16.11L131.52-16.11Q132.24-16.11 132.24-15.33L132.24-15.33L132.24-15.33Q132.24-14.85 132.05-13.94L132.05-13.94L131.21-10.10" fill="#fcb711" stroke="none" stroke-width="none" transform="translate(-127.38497924804688,5.907239356407742)" style="fill: rgb(252, 183, 17);"></path></g><g class="path" style="transform: matrix(1, 0, 0, 1, 0, 14.925); opacity: 0.05; transform-origin: 15.005px 0.802239px; animation: 2.22222s linear 0.733333s 1 normal forwards running float-btt-in-58f3df71-92f7-434f-9d13-5b99713df472;"><path d="M133.22-9.62L133.22-10.00L138.28-10.00L138.28-8.06L138.28-8.06Q138.98-10.21 141.34-10.21L141.34-10.21L141.34-10.21Q143.70-10.21 144.21-7.94L144.21-7.94L144.21-7.94Q144.94-10.21 147.29-10.21L147.29-10.21L147.29-10.21Q150.38-10.21 150.38-6.70L150.38-6.70L150.38-0.38L151.56-0.38L151.56 0L145.74 0L145.74-0.38L146.48-0.38L146.48-7.20L146.48-7.20Q146.48-8.80 146.20-9.07L146.20-9.07L146.20-9.07Q146.08-9.20 145.87-9.20L145.87-9.20L145.87-9.20Q145.26-9.20 144.80-8.38L144.80-8.38L144.80-8.38Q144.33-7.56 144.33-6.30L144.33-6.30L144.33-0.38L145.09-0.38L145.09 0L139.69 0L139.69-0.38L140.43-0.38L140.43-7.20L140.43-7.20Q140.43-8.80 140.15-9.07L140.15-9.07L140.15-9.07Q140.03-9.20 139.82-9.20L139.82-9.20L139.82-9.20Q139.23-9.20 138.76-8.31L138.76-8.31L138.76-8.31Q138.28-7.41 138.28-6.17L138.28-6.17L138.28-0.38L139.04-0.38L139.04 0L133.22 0L133.22-0.38L134.38-0.38L134.38-9.62L133.22-9.62" fill="#fcb711" stroke="none" stroke-width="none" transform="translate(-127.38497924804688,5.907239356407742)" style="fill: rgb(243, 112, 33);"></path></g><g class="path" style="transform: matrix(1, 0, 0, 1, 0, 14.925); opacity: 0.05; transform-origin: 33.59px -1.34776px; animation: 2.22222s linear 0.789744s 1 normal forwards running float-btt-in-58f3df71-92f7-434f-9d13-5b99713df472;"><path d="M159.14-14.30L159.14-14.70L165.96-14.70L165.96-14.30L164.81-14.30L164.81-5.23L164.81-5.23Q164.81-2.39 163.53-1.10L163.53-1.10L163.53-1.10Q162.25 0.19 159.68 0.19L159.68 0.19L159.68 0.19Q157.98 0.19 156.99-0.46L156.99-0.46L156.99-0.46Q155.99-1.11 155.99-2.29L155.99-2.29L155.99-2.29Q155.99-3.19 156.49-3.71L156.49-3.71L156.49-3.71Q157.00-4.22 157.87-4.22L157.87-4.22L157.87-4.22Q158.74-4.22 159.17-3.78L159.17-3.78L159.17-3.78Q159.60-3.34 159.60-2.72L159.60-2.72L159.60-2.72Q159.60-2.10 159.37-1.47L159.37-1.47L158.55-1.47L158.55-1.47Q158.36-1.16 158.36-0.87L158.36-0.87L158.36-0.87Q158.36-0.59 158.64-0.39L158.64-0.39L158.64-0.39Q158.93-0.19 159.39-0.19L159.39-0.19L159.39-0.19Q160.23-0.19 160.47-0.85L160.47-0.85L160.47-0.85Q160.71-1.51 160.71-3.72L160.71-3.72L160.71-14.30L159.14-14.30" fill="#fcb711" stroke="none" stroke-width="none" transform="translate(-127.38497924804688,5.907239356407742)" style="fill: rgb(204, 0, 76);"></path></g><g class="path" style="transform: matrix(1, 0, 0, 1, 0, 14.925); opacity: 0.05; transform-origin: 44.32px 0.907239px; animation: 2.22222s linear 0.846154s 1 normal forwards running float-btt-in-58f3df71-92f7-434f-9d13-5b99713df472;"><path d="M173.00-4.14L173.00-4.14L173.00-5.92L173.00-5.92Q173.00-7.96 172.78-8.89L172.78-8.89L172.78-8.89Q172.56-9.83 171.76-9.83L171.76-9.83L171.76-9.83Q171.30-9.83 171.01-9.57L171.01-9.57L171.01-9.57Q170.73-9.30 170.60-8.69L170.60-8.69L170.60-8.69Q170.41-7.75 170.41-5.82L170.41-5.82L170.41-4.18L170.41-4.18Q170.41-1.89 170.55-1.43L170.55-1.43L170.55-1.43Q170.69-0.97 170.84-0.67L170.84-0.67L170.84-0.67Q171.07-0.17 171.74-0.17L171.74-0.17L171.74-0.17Q172.56-0.17 172.81-1.11L172.81-1.11L172.81-1.11Q173.00-1.79 173.00-4.14zM171.70 0.21L171.70 0.21Q169.07 0.21 167.73-1.13L167.73-1.13L167.73-1.13Q166.38-2.48 166.38-4.99L166.38-4.99L166.38-4.99Q166.38-7.50 167.82-8.85L167.82-8.85L167.82-8.85Q169.26-10.21 171.86-10.21L171.86-10.21L171.86-10.21Q174.47-10.21 175.75-8.96L175.75-8.96L175.75-8.96Q177.03-7.71 177.03-5.15L177.03-5.15L177.03-5.15Q177.03 0.21 171.70 0.21L171.70 0.21" fill="#fcb711" stroke="none" stroke-width="none" transform="translate(-127.38497924804688,5.907239356407742)" style="fill: rgb(100, 96, 170);"></path></g><g class="path" style="transform: matrix(1, 0, 0, 1, 0, 14.925); opacity: 0.05; transform-origin: 55.185px 3.53224px; animation: 2.22222s linear 0.902564s 1 normal forwards running float-btt-in-58f3df71-92f7-434f-9d13-5b99713df472;"><path d="M177.85-9.62L176.99-9.62L176.99-10.00L183.08-10.00L183.08-9.62L181.94-9.62L184.23-2.65L186.67-9.62L185.26-9.62L185.26-10.00L188.22-10.00L188.22-9.62L187.17-9.62L183.25 1.70L183.25 1.70Q182.55 3.68 181.69 4.46L181.69 4.46L181.69 4.46Q180.83 5.25 179.59 5.25L179.59 5.25L179.59 5.25Q178.35 5.25 177.64 4.68L177.64 4.68L177.64 4.68Q176.92 4.12 176.92 3.23L176.92 3.23L176.92 3.23Q176.92 2.35 177.39 1.89L177.39 1.89L177.39 1.89Q177.85 1.43 178.60 1.43L178.60 1.43L178.60 1.43Q180.35 1.43 180.35 2.88L180.35 2.88L180.35 2.88Q180.35 3.19 180.22 3.63L180.22 3.63L179.49 3.63L179.49 3.63Q179.32 4.12 179.44 4.43L179.44 4.43L179.44 4.43Q179.57 4.75 180.01 4.75L180.01 4.75L180.01 4.75Q180.87 4.75 181.54 3.90L181.54 3.90L181.54 3.90Q182.22 3.05 182.83 1.30L182.83 1.30L183.29 0L181.44 0L177.85-9.62" fill="#fcb711" stroke="none" stroke-width="none" transform="translate(-127.38497924804688,5.907239356407742)" style="fill: rgb(0, 137, 208);"></path></g><g class="path" style="transform: matrix(1, 0, 0, 1, 0, 14.925); opacity: 0.05; transform-origin: 65.845px 0.907239px; animation: 2.22222s linear 0.958974s 1 normal forwards running float-btt-in-58f3df71-92f7-434f-9d13-5b99713df472;"><path d="M194.52-4.14L194.52-4.14L194.52-5.92L194.52-5.92Q194.52-7.96 194.30-8.89L194.30-8.89L194.30-8.89Q194.08-9.83 193.28-9.83L193.28-9.83L193.28-9.83Q192.82-9.83 192.54-9.57L192.54-9.57L192.54-9.57Q192.25-9.30 192.13-8.69L192.13-8.69L192.13-8.69Q191.94-7.75 191.94-5.82L191.94-5.82L191.94-4.18L191.94-4.18Q191.94-1.89 192.08-1.43L192.08-1.43L192.08-1.43Q192.21-0.97 192.36-0.67L192.36-0.67L192.36-0.67Q192.59-0.17 193.26-0.17L193.26-0.17L193.26-0.17Q194.08-0.17 194.33-1.11L194.33-1.11L194.33-1.11Q194.52-1.79 194.52-4.14zM193.22 0.21L193.22 0.21Q190.60 0.21 189.25-1.13L189.25-1.13L189.25-1.13Q187.91-2.48 187.91-4.99L187.91-4.99L187.91-4.99Q187.91-7.50 189.35-8.85L189.35-8.85L189.35-8.85Q190.78-10.21 193.39-10.21L193.39-10.21L193.39-10.21Q195.99-10.21 197.27-8.96L197.27-8.96L197.27-8.96Q198.55-7.71 198.55-5.15L198.55-5.15L198.55-5.15Q198.55 0.21 193.22 0.21L193.22 0.21" fill="#fcb711" stroke="none" stroke-width="none" transform="translate(-127.38497924804688,5.907239356407742)" style="fill: rgb(13, 177, 75);"></path></g><g class="path" style="transform: matrix(1, 0, 0, 1, 0, 14.925); opacity: 0.05; transform-origin: 76.245px 0.887239px; animation: 2.22222s linear 1.01538s 1 normal forwards running float-btt-in-58f3df71-92f7-434f-9d13-5b99713df472;"><path d="M199.88 0.21L199.63 0.21L199.63-3.55L199.88-3.55L199.88-3.55Q200.42-1.72 201.35-0.99L201.35-0.99L201.35-0.99Q202.27-0.25 203.66-0.25L203.66-0.25L203.66-0.25Q205.80-0.25 205.80-1.62L205.80-1.62L205.80-1.62Q205.80-2.21 205.27-2.50L205.27-2.50L205.27-2.50Q204.46-2.96 203.17-3.21L203.17-3.21L203.17-3.21Q201.75-3.59 200.78-4.22L200.78-4.22L200.78-4.22Q199.63-4.98 199.63-6.62L199.63-6.62L199.63-6.62Q199.63-8.25 200.63-9.23L200.63-9.23L200.63-9.23Q201.64-10.21 203.32-10.21L203.32-10.21L203.32-10.21Q204.35-10.21 205.44-9.72L205.44-9.72L205.44-9.72Q205.84-9.55 206.05-9.55L206.05-9.55L206.05-9.55Q206.26-9.55 206.41-9.70L206.41-9.70L206.41-9.70Q206.56-9.85 206.77-10.25L206.77-10.25L207.00-10.25L207.00-7.04L206.74-7.04L206.74-7.04Q205.67-9.77 203.43-9.77L203.43-9.77L203.43-9.77Q202.44-9.77 201.96-9.42L201.96-9.42L201.96-9.42Q201.47-9.07 201.47-8.55L201.47-8.55L201.47-8.55Q201.47-8.23 201.62-8.05L201.62-8.05L201.62-8.05Q201.77-7.88 201.85-7.79L201.85-7.79L201.85-7.79Q201.94-7.71 202.12-7.61L202.12-7.61L202.12-7.61Q202.31-7.52 202.44-7.47L202.44-7.47L202.44-7.47Q202.57-7.41 202.83-7.33L202.83-7.33L202.83-7.33Q203.09-7.25 203.22-7.22L203.22-7.22L203.22-7.22Q204.64-6.87 205.27-6.60L205.27-6.60L205.27-6.60Q205.90-6.34 206.47-5.96L206.47-5.96L206.47-5.96Q207.63-5.17 207.63-3.39L207.63-3.39L207.63-3.39Q207.63-1.62 206.58-0.70L206.58-0.70L206.58-0.70Q205.53 0.21 203.70 0.21L203.70 0.21L203.70 0.21Q202.40 0.21 201.18-0.40L201.18-0.40L201.18-0.40Q200.93-0.57 200.78-0.57L200.78-0.57L200.78-0.57Q200.32-0.57 199.88 0.21L199.88 0.21" fill="#fcb711" stroke="none" stroke-width="none" transform="translate(-127.38497924804688,5.907239356407742)" style="fill: rgb(252, 183, 17);"></path></g><g class="path" style="transform: matrix(1, 0, 0, 1, 0, 14.925); opacity: 0.05; transform-origin: 87.185px -1.96776px; animation: 2.22222s linear 1.07179s 1 normal forwards running float-btt-in-58f3df71-92f7-434f-9d13-5b99713df472;"><path d="M208.26-15.37L208.26-15.75L213.32-15.75L213.32-8.06L213.32-8.06Q213.65-9.03 214.35-9.62L214.35-9.62L214.35-9.62Q215.04-10.21 216.45-10.21L216.45-10.21L216.45-10.21Q219.70-10.21 219.70-6.70L219.70-6.70L219.70-0.38L220.88-0.38L220.88 0L214.93 0L214.93-0.38L215.80-0.38L215.80-7.20L215.80-7.20Q215.80-8.46 215.63-8.83L215.63-8.83L215.63-8.83Q215.46-9.20 215.02-9.20L215.02-9.20L215.02-9.20Q214.35-9.20 213.83-8.32L213.83-8.32L213.83-8.32Q213.32-7.43 213.32-6.17L213.32-6.17L213.32-0.38L214.22-0.38L214.22 0L208.26 0L208.26-0.38L209.41-0.38L209.41-15.37L208.26-15.37" fill="#fcb711" stroke="none" stroke-width="none" transform="translate(-127.38497924804688,5.907239356407742)" style="fill: rgb(243, 112, 33);"></path></g><g class="path" style="transform: matrix(1, 0, 0, 1, 0, 14.925); opacity: 0.05; transform-origin: 96.945px -7.49276px; animation: 2.22222s linear 1.12821s 1 normal forwards running float-btt-in-58f3df71-92f7-434f-9d13-5b99713df472;"><path d="M224.28-11.45L224.28-11.45L224.28-11.45Q223.17-11.45 222.69-12.01L222.69-12.01L222.69-12.01Q222.22-12.58 222.22-13.42L222.22-13.42L222.22-13.42Q222.22-14.26 222.74-14.81L222.74-14.81L222.74-14.81Q223.25-15.35 224.30-15.35L224.30-15.35L224.30-15.35Q225.35-15.35 225.90-14.86L225.90-14.86L225.90-14.86Q226.44-14.36 226.44-13.45L226.44-13.45L226.44-13.45Q226.44-12.54 225.92-11.99L225.92-11.99L225.92-11.99Q225.39-11.45 224.28-11.45" fill="#fcb711" stroke="none" stroke-width="none" transform="translate(-127.38497924804688,5.907239356407742)" style="fill: rgb(204, 0, 76);"></path></g><g class="path" style="transform: matrix(1, 0, 0, 1, 0, 14.925); opacity: 0.05; transform-origin: 96.885px 0.907239px; animation: 2.22222s linear 1.18462s 1 normal forwards running float-btt-in-58f3df71-92f7-434f-9d13-5b99713df472;"><path d="M221.11-9.62L221.11-10.00L226.25-10.00L226.25-0.38L227.43-0.38L227.43 0L221.19 0L221.19-0.38L222.35-0.38L222.35-9.62L221.11-9.62" fill="#fcb711" stroke="none" stroke-width="none" transform="translate(-127.38497924804688,5.907239356407742)" style="fill: rgb(100, 96, 170);"></path></g><g class="path" style="transform: matrix(1, 0, 0, 1, 0, 14.925); opacity: 0.05; transform-origin: 104.945px 0.887239px; animation: 2.22222s linear 1.24103s 1 normal forwards running float-btt-in-58f3df71-92f7-434f-9d13-5b99713df472;"><path d="M228.58 0.21L228.33 0.21L228.33-3.55L228.58-3.55L228.58-3.55Q229.13-1.72 230.05-0.99L230.05-0.99L230.05-0.99Q230.98-0.25 232.36-0.25L232.36-0.25L232.36-0.25Q234.51-0.25 234.51-1.62L234.51-1.62L234.51-1.62Q234.51-2.21 233.98-2.50L233.98-2.50L233.98-2.50Q233.16-2.96 231.88-3.21L231.88-3.21L231.88-3.21Q230.45-3.59 229.49-4.22L229.49-4.22L229.49-4.22Q228.33-4.98 228.33-6.62L228.33-6.62L228.33-6.62Q228.33-8.25 229.34-9.23L229.34-9.23L229.34-9.23Q230.35-10.21 232.03-10.21L232.03-10.21L232.03-10.21Q233.06-10.21 234.15-9.72L234.15-9.72L234.15-9.72Q234.55-9.55 234.76-9.55L234.76-9.55L234.76-9.55Q234.97-9.55 235.12-9.70L235.12-9.70L235.12-9.70Q235.26-9.85 235.47-10.25L235.47-10.25L235.70-10.25L235.70-7.04L235.45-7.04L235.45-7.04Q234.38-9.77 232.13-9.77L232.13-9.77L232.13-9.77Q231.15-9.77 230.66-9.42L230.66-9.42L230.66-9.42Q230.18-9.07 230.18-8.55L230.18-8.55L230.18-8.55Q230.18-8.23 230.33-8.05L230.33-8.05L230.33-8.05Q230.47-7.88 230.56-7.79L230.56-7.79L230.56-7.79Q230.64-7.71 230.83-7.61L230.83-7.61L230.83-7.61Q231.02-7.52 231.15-7.47L231.15-7.47L231.15-7.47Q231.27-7.41 231.54-7.33L231.54-7.33L231.54-7.33Q231.80-7.25 231.92-7.22L231.92-7.22L231.92-7.22Q233.35-6.87 233.98-6.60L233.98-6.60L233.98-6.60Q234.61-6.34 235.18-5.96L235.18-5.96L235.18-5.96Q236.33-5.17 236.33-3.39L236.33-3.39L236.33-3.39Q236.33-1.62 235.28-0.70L235.28-0.70L235.28-0.70Q234.23 0.21 232.41 0.21L232.41 0.21L232.41 0.21Q231.10 0.21 229.89-0.40L229.89-0.40L229.89-0.40Q229.63-0.57 229.49-0.57L229.49-0.57L229.49-0.57Q229.03-0.57 228.58 0.21L228.58 0.21" fill="#fcb711" stroke="none" stroke-width="none" transform="translate(-127.38497924804688,5.907239356407742)" style="fill: rgb(0, 137, 208);"></path></g><g class="path" style="transform: matrix(1, 0, 0, 1, 0, 14.925); opacity: 0.05; transform-origin: 115.885px -1.96776px; animation: 2.22222s linear 1.29744s 1 normal forwards running float-btt-in-58f3df71-92f7-434f-9d13-5b99713df472;"><path d="M236.96-15.37L236.96-15.75L242.02-15.75L242.02-8.06L242.02-8.06Q242.36-9.03 243.05-9.62L243.05-9.62L243.05-9.62Q243.75-10.21 245.15-10.21L245.15-10.21L245.15-10.21Q248.41-10.21 248.41-6.70L248.41-6.70L248.41-0.38L249.58-0.38L249.58 0L243.64 0L243.64-0.38L244.50-0.38L244.50-7.20L244.50-7.20Q244.50-8.46 244.33-8.83L244.33-8.83L244.33-8.83Q244.17-9.20 243.73-9.20L243.73-9.20L243.73-9.20Q243.05-9.20 242.54-8.32L242.54-8.32L242.54-8.32Q242.02-7.43 242.02-6.17L242.02-6.17L242.02-0.38L242.93-0.38L242.93 0L236.96 0L236.96-0.38L238.12-0.38L238.12-15.37L236.96-15.37" fill="#fcb711" stroke="none" stroke-width="none" transform="translate(-127.38497924804688,5.907239356407742)" style="fill: rgb(13, 177, 75);"></path></g><g class="path" style="transform: matrix(1, 0, 0, 1, 0, 14.925); opacity: 0.05; transform-origin: 126.325px -3.42776px; animation: 2.22222s linear 1.35385s 1 normal forwards running float-btt-in-58f3df71-92f7-434f-9d13-5b99713df472;"><path d="M253.89-3.74L253.43-3.74L253.43-5.54L253.43-5.54Q253.43-7.35 252.75-9.84L252.75-9.84L252.75-9.84Q252.06-12.33 252.06-13.23L252.06-13.23L252.06-13.23Q252.06-14.13 252.56-14.53L252.56-14.53L252.56-14.53Q253.05-14.93 253.76-14.93L253.76-14.93L253.76-14.93Q255.36-14.93 255.36-13.23L255.36-13.23L255.36-13.23Q255.36-12.24 254.63-9.79L254.63-9.79L254.63-9.79Q253.89-7.33 253.89-5.52L253.89-5.52L253.89-3.74" fill="#fcb711" stroke="none" stroke-width="none" transform="translate(-127.38497924804688,5.907239356407742)" style="fill: rgb(252, 183, 17);"></path></g><g class="path" style="transform: matrix(1, 0, 0, 1, 0, 14.925); opacity: 0.05; transform-origin: 126.23px 4.53224px; animation: 2.22222s linear 1.41026s 1 normal forwards running float-btt-in-58f3df71-92f7-434f-9d13-5b99713df472;"><path d="M253.59 0.21L253.59 0.21L253.59 0.21Q252.80 0.21 252.41-0.24L252.41-0.24L252.41-0.24Q252.02-0.69 252.02-1.38L252.02-1.38L252.02-1.38Q252.02-2.06 252.44-2.51L252.44-2.51L252.44-2.51Q252.86-2.96 253.60-2.96L253.60-2.96L253.60-2.96Q254.33-2.96 254.77-2.57L254.77-2.57L254.77-2.57Q255.21-2.18 255.21-1.43L255.21-1.43L255.21-1.43Q255.21-0.67 254.79-0.23L254.79-0.23L254.79-0.23Q254.37 0.21 253.59 0.21" fill="#fcb711" stroke="none" stroke-width="none" transform="translate(-127.38497924804688,5.907239356407742)" style="fill: rgb(243, 112, 33);"></path></g></g>
</g>
</g>
<style id="float-btt-in-58f3df71-92f7-434f-9d13-5b99713df472" data-anikit="">@keyframes float-btt-in-58f3df71-92f7-434f-9d13-5b99713df472
{
  0% {
    animation-timing-function: cubic-bezier(0.2242,0.7499,0.3142,0.8148);
    transform: translate(0px,14.925px) rotate(0deg) scale(1,1) skewX(0deg) skewY(0deg);
    opacity: 0.05;
  }
  100% {
    transform: translate(0px,0px) rotate(0deg) scale(1,1) skewX(0deg) skewY(0deg);
    opacity: 1;
  }
}</style></svg>